<svg width="477" height="212" viewBox="0 0 477 212" fill="none" xmlns="http://www.w3.org/2000/svg">
<path d="M452.759 107.438C450.073 109.229 446.411 110.979 441.772 112.688C438.192 114.071 435.425 115.414 433.472 116.716C431.519 118.018 429.891 120.052 428.589 122.819C427.368 125.505 426.758 129.33 426.758 134.294C426.758 136.817 426.921 139.543 427.246 142.473C427.653 145.402 428.06 148.251 428.467 151.018C428.548 151.669 428.833 153.785 429.321 157.365C429.81 160.946 430.054 164.323 430.054 167.497C430.054 181.088 426.392 191.586 419.067 198.991C411.825 206.397 401.367 210.547 387.695 211.442C387.044 210.791 386.719 209.937 386.719 208.879C386.719 207.821 386.759 206.966 386.841 206.315C387.004 205.664 387.288 205.054 387.695 204.484C394.613 203.426 400.269 201.229 404.663 197.893C409.058 194.637 411.255 189.836 411.255 183.488C411.255 180.803 411.011 178.076 410.522 175.31C410.116 172.543 409.465 169.206 408.569 165.3C407.674 161.231 406.982 157.854 406.494 155.168C406.087 152.401 405.884 149.593 405.884 146.745C405.884 136.654 408.854 128.068 414.795 120.988C420.817 113.908 428.833 108.863 438.843 105.852C428.752 102.922 420.736 97.917 414.795 90.8369C408.854 83.7568 405.884 75.1305 405.884 64.958C405.884 62.2725 406.087 59.709 406.494 57.2676C406.901 54.8262 407.552 51.3675 408.447 46.8916C410.156 39.4046 411.011 33.4639 411.011 29.0693C411.011 22.2334 408.936 17.1471 404.785 13.8105C400.635 10.3926 394.938 8.19531 387.695 7.21875C387.207 6.24219 386.963 5.14355 386.963 3.92285C386.963 2.94629 387.207 1.72559 387.695 0.260742C400.635 1.07454 410.929 5.02148 418.579 12.1016C426.31 19.1816 430.176 29.0693 430.176 41.7646C430.176 44.4502 429.972 47.3392 429.565 50.4316C429.24 53.5241 428.874 56.5352 428.467 59.4648C428.06 62.4759 427.653 65.5277 427.246 68.6201C426.921 71.7126 426.758 74.6016 426.758 77.2871C426.758 84.4486 428.833 90.1452 432.983 94.377C437.134 98.6087 442.79 101.009 449.951 101.579C450.846 102.149 451.538 102.963 452.026 104.021C452.515 105.078 452.759 106.218 452.759 107.438Z" fill="#23C8D2"/>
<path d="M24.2412 107.438C26.9268 109.229 30.5889 110.979 35.2275 112.688C38.8083 114.071 41.5752 115.414 43.5283 116.716C45.4814 118.018 47.109 120.052 48.4111 122.819C49.6318 125.505 50.2422 129.33 50.2422 134.294C50.2422 136.817 50.0794 139.543 49.7539 142.473C49.347 145.402 48.9401 148.251 48.5332 151.018C48.4518 151.669 48.167 153.785 47.6787 157.365C47.1904 160.946 46.9463 164.323 46.9463 167.497C46.9463 181.088 50.6084 191.586 57.9326 198.991C65.1755 206.397 75.6328 210.547 89.3047 211.442C89.9557 210.791 90.2812 209.937 90.2812 208.879C90.2812 207.821 90.2406 206.966 90.1592 206.315C89.9964 205.664 89.7116 205.054 89.3047 204.484C82.3874 203.426 76.7314 201.229 72.3369 197.893C67.9424 194.637 65.7451 189.836 65.7451 183.488C65.7451 180.803 65.9893 178.076 66.4775 175.31C66.8844 172.543 67.5355 169.206 68.4307 165.3C69.3258 161.231 70.0176 157.854 70.5059 155.168C70.9128 152.401 71.1162 149.593 71.1162 146.745C71.1162 136.654 68.1458 128.068 62.2051 120.988C56.1829 113.908 48.167 108.863 38.1572 105.852C48.2484 102.922 56.2643 97.917 62.2051 90.8369C68.1458 83.7568 71.1162 75.1305 71.1162 64.958C71.1162 62.2725 70.9128 59.709 70.5059 57.2676C70.099 54.8262 69.4479 51.3675 68.5527 46.8916C66.8438 39.4046 65.9893 33.4639 65.9893 29.0693C65.9893 22.2334 68.0645 17.1471 72.2148 13.8105C76.3652 10.3926 82.0618 8.19531 89.3047 7.21875C89.793 6.24219 90.0371 5.14355 90.0371 3.92285C90.0371 2.94629 89.793 1.72559 89.3047 0.260742C76.3652 1.07454 66.0706 5.02148 58.4209 12.1016C50.6898 19.1816 46.8242 29.0693 46.8242 41.7646C46.8242 44.4502 47.0277 47.3392 47.4346 50.4316C47.7601 53.5241 48.1263 56.5352 48.5332 59.4648C48.9401 62.4759 49.347 65.5277 49.7539 68.6201C50.0794 71.7126 50.2422 74.6016 50.2422 77.2871C50.2422 84.4486 48.167 90.1452 44.0166 94.377C39.8662 98.6087 34.2103 101.009 27.0488 101.579C26.1536 102.149 25.4619 102.963 24.9736 104.021C24.4854 105.078 24.2412 106.218 24.2412 107.438Z" fill="#23C8D2"/>
</svg>
