<svg width="310" height="195" viewBox="0 0 310 195" fill="none" xmlns="http://www.w3.org/2000/svg">
<path fill-rule="evenodd" clip-rule="evenodd" d="M114.712 51.1939C114.561 50.7913 100.891 14.6686 100.701 14.293H127.076L171.441 134.095C178.357 152.506 169.273 173.59 150.742 180.46C137.656 185.313 124.068 182.321 114.698 173.354L131.522 156.94C134.653 158.923 138.628 159.558 142.226 158.224C148.35 155.953 151.263 148.509 148.978 142.424L114.712 51.1939Z" fill="#409CFF"/>
<path d="M223.859 150.112L277.631 15.0458L249.82 14.9172L212.891 117.09L176.55 14.5783L148.738 14.4497L201.61 150.01L223.859 150.112Z" fill="#F5775B"/>
<path fill-rule="evenodd" clip-rule="evenodd" d="M39.8659 116.123L27.238 149.798L0.00166777 149.673L52.6252 14.6L76.0254 14.7078L127.168 150.259L99.9321 150.133L87.4336 116.342L39.8659 116.123ZM44.3617 97.6553L82.7223 97.8327L64.1779 44.5741L44.3617 97.6553Z" fill="#23C8D2"/>
</svg>
