<svg width="112" height="32" xmlns="http://www.w3.org/2000/svg" style="background:#000"><path d="M30.954 22.564h1.86v3.09h-5.826v-7.975c0-2.458-.806-3.404-2.386-3.404-1.922 0-2.696 1.387-2.696 3.373v4.948h1.859v3.089h-5.857v-8.006c0-2.458-.806-3.404-2.386-3.404-1.921 0-2.696 1.387-2.696 3.373v4.948h2.665v3.089H7v-3.089h1.86V14.56H7v-3.09h5.857v2.144c.837-1.513 2.293-2.427 4.245-2.427 2.015 0 3.874.977 4.556 3.058.774-1.892 2.355-3.058 4.555-3.058 2.51 0 4.803 1.545 4.803 4.917v6.461h-.062zm11.001.284c-2.169 0-3.285-1.891-3.285-4.35 0-2.679 1.27-4.223 3.316-4.223 1.89 0 3.409 1.292 3.409 4.16 0 2.743-1.364 4.413-3.44 4.413zm.093-11.662c-5.02 0-7.5 3.436-7.5 7.596 0 4.539 2.976 7.218 7.283 7.218 4.463 0 7.685-2.868 7.685-7.407 0-3.971-2.448-7.407-7.468-7.407zm19.988 9.204l3.16.315-.867 4.98H52.15l-.402-2.143 7.684-8.983h-4.369l-.62 2.206-2.881-.315.495-4.98h12.241l.31 2.143-7.747 8.983h4.524l.65-2.206zm6.105 5.295h4.183v-5.106h-4.183v5.106zm0-9.11h4.183V11.47h-4.183v5.106zM84.874 4l-6.042 21.653h-3.936L80.94 4h3.935zm8.12 0L86.95 25.653h-3.936L89.058 4h3.935zm5.36 19.07c-1.208 0-1.642-.726-1.642-1.64 0-1.545 1.24-1.954 2.665-1.954.65 0 1.364.094 2.014.189-.093 2.364-1.611 3.404-3.037 3.404zm8.553.093a2.064 2.064 0 0 1-.588.095c-.651 0-.961-.284-.961-1.103v-6.146c0-3.247-2.541-4.823-5.547-4.823-2.293 0-3.533.284-5.981 1.293l-.496 3.277 3.192.347.465-1.607c.65-.347 1.302-.41 2.138-.41 2.262 0 2.293 1.733 2.293 3.183v.473a17.978 17.978 0 0 0-2.293-.126c-3.192 0-6.507.82-6.507 4.318 0 2.963 2.292 4.066 4.307 4.066 2.262 0 3.688-1.387 4.493-2.837.186 1.734 1.209 2.837 3.068 2.837.868 0 1.767-.252 2.51-.662l-.093-2.175z" fill="#FFF" fill-rule="evenodd"/></svg>