<?xml version="1.0" encoding="UTF-8" standalone="no"?>
<!DOCTYPE svg PUBLIC "-//W3C//DTD SVG 1.1//EN" "http://www.w3.org/Graphics/SVG/1.1/DTD/svg11.dtd">
<svg version="1.1" xmlns="http://www.w3.org/2000/svg" xmlns:xlink="http://www.w3.org/1999/xlink" preserveAspectRatio="xMidYMid meet" viewBox="135.84905660377092 133.5471698113219 285.99999999999994 81.99999999999801" width="286" height="82"><defs><path d="M401.35 133.55C412.67 133.55 421.85 142.73 421.85 154.05C421.85 166.35 421.85 182.75 421.85 195.05C421.85 206.37 412.67 215.55 401.35 215.55C348.25 215.55 209.45 215.55 156.35 215.55C145.03 215.55 135.85 206.37 135.85 195.05C135.85 182.75 135.85 166.35 135.85 154.05C135.85 142.73 145.03 133.55 156.35 133.55C209.45 133.55 348.25 133.55 401.35 133.55Z" id="b8lLCaEQh"></path><path d="M282.08 162.55L282.1 162.55L282.11 162.55L282.13 162.56L282.15 162.56L282.16 162.56L282.18 162.57L282.19 162.57L282.2 162.58L282.22 162.58L282.23 162.59L282.25 162.6L282.26 162.61L282.27 162.62L282.29 162.62L282.3 162.63L282.31 162.64L282.32 162.65L282.33 162.66L282.34 162.68L282.35 162.69L282.36 162.7L282.37 162.71L282.38 162.72L282.39 162.74L282.4 162.75L282.4 162.76L282.41 162.78L282.42 162.79L282.42 162.81L282.43 162.82L282.43 162.84L282.44 162.85L282.44 162.87L282.44 162.88L282.45 162.9L282.45 162.91L282.45 162.93L282.45 162.95L282.45 170.95L290.45 170.95L290.47 170.95L290.48 170.95L290.5 170.95L290.51 170.95L290.53 170.96L290.55 170.96L290.56 170.96L290.58 170.97L290.59 170.97L290.6 170.98L290.62 170.98L290.63 170.99L290.65 171L290.66 171.01L290.67 171.02L290.69 171.02L290.7 171.03L290.71 171.04L290.72 171.05L290.73 171.06L290.74 171.08L290.75 171.09L290.76 171.1L290.77 171.11L290.78 171.12L290.79 171.14L290.8 171.15L290.8 171.16L290.81 171.18L290.82 171.19L290.82 171.21L290.83 171.22L290.83 171.24L290.84 171.25L290.84 171.27L290.84 171.28L290.85 171.3L290.85 171.31L290.85 171.33L290.85 171.35L290.85 177.75L290.85 177.76L290.85 177.78L290.85 177.8L290.84 177.81L290.84 177.83L290.84 177.84L290.83 177.86L290.83 177.87L290.82 177.89L290.82 177.9L290.81 177.92L290.8 177.93L290.8 177.94L290.79 177.96L290.78 177.97L290.77 177.98L290.76 178L290.75 178.01L290.74 178.02L290.73 178.03L290.72 178.04L290.71 178.05L290.7 178.06L290.69 178.07L290.67 178.08L290.66 178.09L290.65 178.1L290.63 178.1L290.62 178.11L290.6 178.12L290.59 178.12L290.58 178.13L290.56 178.13L290.55 178.14L290.53 178.14L290.51 178.14L290.5 178.14L290.48 178.15L290.47 178.15L290.45 178.15L282.45 178.15L282.45 186.15L282.45 186.16L282.45 186.18L282.45 186.2L282.44 186.21L282.44 186.23L282.44 186.24L282.43 186.26L282.43 186.27L282.42 186.29L282.42 186.3L282.41 186.32L282.4 186.33L282.4 186.34L282.39 186.36L282.38 186.37L282.37 186.38L282.36 186.4L282.35 186.41L282.34 186.42L282.33 186.43L282.32 186.44L282.31 186.45L282.3 186.46L282.29 186.47L282.27 186.48L282.26 186.49L282.25 186.5L282.23 186.5L282.22 186.51L282.2 186.52L282.19 186.52L282.18 186.53L282.16 186.53L282.15 186.54L282.13 186.54L282.11 186.54L282.1 186.54L282.08 186.55L282.07 186.55L282.05 186.55L275.65 186.55L275.63 186.55L275.62 186.55L275.6 186.54L275.58 186.54L275.57 186.54L275.55 186.54L275.54 186.53L275.52 186.53L275.51 186.52L275.49 186.52L275.48 186.51L275.47 186.5L275.45 186.5L275.44 186.49L275.43 186.48L275.41 186.47L275.4 186.46L275.39 186.45L275.38 186.44L275.37 186.43L275.36 186.42L275.35 186.41L275.34 186.4L275.33 186.38L275.32 186.37L275.31 186.36L275.3 186.34L275.29 186.33L275.29 186.32L275.28 186.3L275.27 186.29L275.27 186.27L275.26 186.26L275.26 186.24L275.26 186.23L275.25 186.21L275.25 186.2L275.25 186.18L275.25 186.16L275.25 186.15L275.25 178.15L267.25 178.15L267.23 178.15L267.22 178.15L267.2 178.14L267.18 178.14L267.17 178.14L267.15 178.14L267.14 178.13L267.12 178.13L267.11 178.12L267.09 178.12L267.08 178.11L267.07 178.1L267.05 178.1L267.04 178.09L267.03 178.08L267.01 178.07L267 178.06L266.99 178.05L266.98 178.04L266.97 178.03L266.96 178.02L266.95 178.01L266.94 178L266.93 177.98L266.92 177.97L266.91 177.96L266.9 177.94L266.89 177.93L266.89 177.92L266.88 177.9L266.87 177.89L266.87 177.87L266.86 177.86L266.86 177.84L266.86 177.83L266.85 177.81L266.85 177.8L266.85 177.78L266.85 177.76L266.85 177.75L266.85 171.35L266.85 171.33L266.85 171.31L266.85 171.3L266.85 171.28L266.86 171.27L266.86 171.25L266.86 171.24L266.87 171.22L266.87 171.21L266.88 171.19L266.89 171.18L266.89 171.16L266.9 171.15L266.91 171.14L266.92 171.12L266.93 171.11L266.94 171.1L266.95 171.09L266.96 171.08L266.97 171.06L266.98 171.05L266.99 171.04L267 171.03L267.01 171.02L267.03 171.02L267.04 171.01L267.05 171L267.07 170.99L267.08 170.98L267.09 170.98L267.11 170.97L267.12 170.97L267.14 170.96L267.15 170.96L267.17 170.96L267.18 170.95L267.2 170.95L267.22 170.95L267.23 170.95L267.25 170.95L275.25 170.95L275.25 162.95L275.25 162.93L275.25 162.91L275.25 162.9L275.25 162.88L275.26 162.87L275.26 162.85L275.26 162.84L275.27 162.82L275.27 162.81L275.28 162.79L275.29 162.78L275.29 162.76L275.3 162.75L275.31 162.74L275.32 162.72L275.33 162.71L275.34 162.7L275.35 162.69L275.36 162.68L275.37 162.66L275.38 162.65L275.39 162.64L275.4 162.63L275.41 162.62L275.43 162.62L275.44 162.61L275.45 162.6L275.47 162.59L275.48 162.58L275.49 162.58L275.51 162.57L275.52 162.57L275.54 162.56L275.55 162.56L275.57 162.56L275.58 162.55L275.6 162.55L275.62 162.55L275.63 162.55L275.65 162.55L282.05 162.55L282.07 162.55L282.08 162.55Z" id="e885bwd2g2"></path></defs><g><g><use xlink:href="#b8lLCaEQh" opacity="1" fill="#ffffff" fill-opacity="0"></use><g><use xlink:href="#b8lLCaEQh" opacity="1" fill-opacity="0" stroke="#bbbbbb" stroke-width="2" stroke-opacity="0.5"></use></g></g><g><use xlink:href="#e885bwd2g2" opacity="1" fill="#ffffff" fill-opacity="0"></use><g><use xlink:href="#e885bwd2g2" opacity="1" fill-opacity="0" stroke="#939393" stroke-width="1" stroke-opacity="0.5"></use></g></g></g></svg>