<svg width="1097" height="1074" viewBox="0 0 1097 1074" fill="none" xmlns="http://www.w3.org/2000/svg">
<path d="M657.975 680.88C654.465 680.605 650.175 679.505 645.104 677.58C641.144 676.162 637.887 675.352 635.334 675.152C632.782 674.951 629.974 675.779 626.911 677.634C623.974 679.469 620.726 682.986 617.167 688.185C615.359 690.827 613.539 693.812 611.709 697.141C609.946 700.535 608.242 703.844 606.596 707.067C606.196 707.814 604.916 710.258 602.754 714.399C600.592 718.54 598.373 722.272 596.098 725.596C586.355 739.829 575.794 747.891 564.413 749.781C553.099 751.737 541.454 747.71 529.478 737.699C529.405 736.496 529.747 735.341 530.506 734.233C531.264 733.125 531.91 732.263 532.445 731.646C533.046 731.094 533.72 730.683 534.466 730.413C540.959 734.844 547.223 737.072 553.258 737.096C559.235 737.206 564.499 733.937 569.049 727.29C570.974 724.477 572.726 721.427 574.305 718.138C575.951 714.914 577.803 710.899 579.861 706.091C582.036 701.113 583.883 697.022 585.404 693.819C587.05 690.595 588.894 687.492 590.936 684.509C598.17 673.941 606.787 667.328 616.788 664.671C626.856 662.078 637.118 663.213 647.576 668.075C641.31 656.926 638.252 645.266 638.402 633.094C638.552 620.922 642.273 609.51 649.566 598.856C651.491 596.044 653.497 593.522 655.584 591.291C657.672 589.06 660.691 585.959 664.642 581.989C671.426 575.516 676.393 569.979 679.543 565.377C684.444 558.218 686.369 551.23 685.32 544.412C684.329 537.509 681.182 530.646 675.877 523.823C676.172 522.41 676.757 521.064 677.633 519.785C678.333 518.763 679.41 517.68 680.865 516.537C691.009 527.75 696.715 540.127 697.981 553.668C699.315 567.273 695.432 580.724 686.331 594.019C684.406 596.831 682.167 599.694 679.612 602.607C677.126 605.585 674.663 608.445 672.226 611.187C669.73 614.015 667.205 616.885 664.651 619.798C662.164 622.776 659.958 625.671 658.033 628.483C652.899 635.983 650.536 643.611 650.943 651.366C651.351 659.121 654.319 666.165 659.848 672.496C660.182 673.809 660.172 675.215 659.818 676.714C659.465 678.213 658.85 679.602 657.975 680.88Z" fill="white"/>
<path d="M416.076 473.398C419.586 473.673 423.876 474.774 428.947 476.698C432.907 478.117 436.164 478.926 438.716 479.126C441.269 479.327 444.077 478.5 447.14 476.644C450.077 474.81 453.325 471.293 456.884 466.094C458.692 463.452 460.511 460.466 462.342 457.138C464.105 453.744 465.809 450.435 467.455 447.211C467.854 446.464 469.135 444.02 471.297 439.879C473.459 435.738 475.678 432.006 477.953 428.682C487.696 414.449 498.257 406.388 509.638 404.497C520.952 402.541 532.597 406.568 544.573 416.579C544.646 417.782 544.304 418.938 543.545 420.046C542.787 421.153 542.141 422.016 541.606 422.632C541.005 423.184 540.331 423.595 539.585 423.866C533.092 419.435 526.828 417.207 520.793 417.182C514.816 417.072 509.552 420.341 505.002 426.989C503.077 429.801 501.325 432.852 499.746 436.14C498.1 439.364 496.248 443.379 494.19 448.187C492.015 453.165 490.167 457.256 488.647 460.46C487.001 463.683 485.157 466.786 483.115 469.769C475.881 480.337 467.264 486.95 457.263 489.608C447.195 492.2 436.932 491.065 426.475 486.203C432.741 497.352 435.799 509.012 435.649 521.184C435.499 533.356 431.778 544.769 424.485 555.422C422.56 558.234 420.554 560.756 418.466 562.987C416.379 565.218 413.36 568.319 409.409 572.289C402.625 578.762 397.658 584.299 394.508 588.901C389.607 596.06 387.682 603.049 388.731 609.867C389.721 616.77 392.869 623.632 398.174 630.455C397.878 631.869 397.293 633.215 396.418 634.493C395.718 635.516 394.641 636.599 393.186 637.742C383.042 626.528 377.336 614.151 376.07 600.611C374.735 587.005 378.619 573.555 387.719 560.259C389.645 557.447 391.884 554.584 394.438 551.671C396.925 548.694 399.387 545.833 401.825 543.091C404.321 540.264 406.846 537.393 409.4 534.481C411.887 531.503 414.093 528.607 416.018 525.795C421.151 518.295 423.515 510.667 423.107 502.912C422.7 495.157 419.732 488.114 414.203 481.782C413.869 480.469 413.879 479.063 414.233 477.564C414.586 476.065 415.201 474.676 416.076 473.398Z" fill="white"/>
<path d="M318.324 368.358L317.748 368.312L317.421 368.789C316.014 370.843 315.024 373.078 314.455 375.489C313.883 377.913 313.86 380.226 314.415 382.409L314.474 382.641L314.631 382.821C322.952 392.34 327.394 402.89 328.006 414.495C328.617 426.086 325.09 437.525 317.344 448.831C314.424 453.094 311.074 457.488 307.293 462.013C303.392 466.457 299.536 470.836 295.724 475.151C291.993 479.344 288.225 483.717 284.42 488.27C280.496 492.741 277.05 497.142 274.083 501.472C260.063 521.937 254.04 542.713 256.109 563.771C258.072 584.694 266.903 603.799 282.543 621.071L283.169 621.762L283.902 621.187C286.171 619.406 287.903 617.68 289.051 616.003C290.458 613.95 291.408 611.772 291.888 609.474L291.983 609.021L291.699 608.656C283.668 598.337 278.942 588.011 277.456 577.675L277.454 577.665C275.897 567.561 278.733 557.139 286.119 546.357C290.878 539.411 298.415 531.009 308.765 521.143L308.775 521.134L308.784 521.125C314.826 515.058 319.45 510.314 322.652 506.895C325.882 503.446 328.98 499.554 331.948 495.221C343.201 478.797 348.956 461.173 349.185 442.37C349.403 424.539 345.151 407.423 336.447 391.036C351.69 397.522 366.71 398.891 381.476 395.095L381.483 395.093C397.056 390.961 410.415 380.684 421.575 364.392C424.721 359.801 427.562 355.024 430.097 350.062L430.104 350.049L430.11 350.036C432.44 345.13 435.269 338.871 438.595 331.262L438.598 331.255C441.738 323.924 444.56 317.812 447.062 312.915L447.068 312.904L447.073 312.893C449.466 307.912 452.119 303.297 455.031 299.046C461.87 289.063 469.639 284.343 478.33 284.504L478.337 284.504L478.344 284.504C487.32 284.542 496.707 287.853 506.521 294.545L506.944 294.833L507.425 294.658C508.693 294.199 509.836 293.501 510.85 292.572L510.892 292.533L510.93 292.49C511.782 291.507 512.794 290.155 513.963 288.449L513.963 288.449C515.233 286.595 515.835 284.613 515.708 282.527L515.681 282.097L515.351 281.821C496.896 266.409 478.802 260.087 461.121 263.138C443.345 266.088 426.993 278.645 412.023 300.496C408.519 305.611 405.108 311.347 401.787 317.702C398.481 324.029 396.526 327.757 395.919 328.892L395.915 328.901L395.91 328.909C393.397 333.827 390.794 338.876 388.102 344.055C385.32 349.112 382.557 353.64 379.816 357.641C374.403 365.543 369.533 370.776 365.221 373.469C360.65 376.233 356.569 377.399 352.944 377.114C349.169 376.817 344.287 375.613 338.273 373.461C330.476 370.504 323.82 368.79 318.324 368.358Z" stroke="white" stroke-width="2"/>
<path d="M755.726 785.921L756.302 785.966L756.629 785.489C758.036 783.435 759.026 781.2 759.594 778.79C760.167 776.365 760.19 774.052 759.635 771.869L759.576 771.638L759.418 771.458C751.097 761.939 746.656 751.388 746.044 739.783C745.433 728.192 748.96 716.754 756.705 705.447C759.626 701.184 762.976 696.79 766.757 692.266C770.658 687.821 774.514 683.442 778.326 679.128C782.057 674.934 785.825 670.561 789.629 666.009C793.554 661.537 797 657.136 799.966 652.806C813.986 632.341 820.01 611.565 817.941 590.507C815.978 569.585 807.147 550.48 791.506 533.207L790.881 532.516L790.148 533.091C787.879 534.872 786.147 536.598 784.998 538.275C783.592 540.328 782.641 542.506 782.161 544.804L782.067 545.257L782.351 545.622C790.382 555.941 795.108 566.267 796.594 576.603L796.595 576.613C798.153 586.717 795.317 597.139 787.93 607.921C783.172 614.867 775.635 623.27 765.285 633.135L765.275 633.144L765.266 633.153C759.224 639.22 754.6 643.965 751.398 647.383C748.168 650.832 745.07 654.724 742.101 659.057C730.849 675.482 725.094 693.105 724.865 711.909C724.647 729.739 728.898 746.855 737.602 763.243C722.36 756.756 707.34 755.387 692.574 759.183L692.567 759.185C676.993 763.318 663.635 773.595 652.474 789.886C649.329 794.477 646.488 799.254 643.953 804.216L643.946 804.229L643.94 804.242C641.61 809.148 638.781 815.407 635.455 823.017L635.452 823.023C632.311 830.355 629.49 836.466 626.988 841.364L626.982 841.375L626.977 841.386C624.584 846.366 621.931 850.981 619.019 855.232C612.18 865.215 604.411 869.936 595.72 869.775L595.713 869.774L595.706 869.774C586.73 869.736 577.343 866.425 567.529 859.734L567.106 859.445L566.624 859.62C565.357 860.079 564.214 860.777 563.2 861.706L563.158 861.745L563.12 861.788C562.268 862.771 561.255 864.123 560.086 865.83L560.086 865.83C558.816 867.683 558.215 869.665 558.342 871.751L558.368 872.181L558.699 872.458C577.154 887.869 595.248 894.191 612.929 891.14C630.705 888.191 647.057 875.634 662.027 853.782C665.531 848.668 668.942 842.932 672.263 836.577C675.569 830.249 677.524 826.521 678.131 825.386L678.135 825.378L678.14 825.369C680.653 820.451 683.256 815.402 685.947 810.224C688.73 805.167 691.493 800.638 694.234 796.637C699.647 788.735 704.517 783.502 708.829 780.809C713.4 778.045 717.481 776.879 721.106 777.164C724.881 777.461 729.763 778.665 735.777 780.817C743.574 783.774 750.23 785.489 755.726 785.921Z" stroke="white" stroke-width="2"/>
<path d="M164.827 216.364L164.25 216.319L163.923 216.796C161.688 220.057 160.117 223.604 159.213 227.431C158.307 231.272 158.274 234.914 159.147 238.338L159.206 238.57L159.363 238.75C172.926 254.254 180.183 271.462 181.184 290.394C182.185 309.314 176.422 327.959 163.815 346.35C159.071 353.27 153.632 360.399 147.496 367.736C141.176 374.932 134.928 382.022 128.753 389.007C122.713 395.791 116.614 402.866 110.454 410.231C104.11 417.454 98.5423 424.559 93.7528 431.546C71.1152 464.57 61.4171 498.053 64.7561 531.968C67.9246 565.687 82.1674 596.491 107.426 624.365L108.051 625.055L108.784 624.481C112.431 621.62 115.184 618.871 116.995 616.229C119.231 612.968 120.735 609.518 121.494 605.884L121.589 605.431L121.304 605.065C108.244 588.297 100.533 571.485 98.1046 554.626L98.1031 554.616C95.5486 538.069 100.207 521.044 112.233 503.5C119.975 492.206 132.217 478.573 148.992 462.595L149.002 462.586L149.011 462.577C158.795 452.76 166.279 445.086 171.458 439.56C176.665 434.004 181.663 427.73 186.455 420.741C204.613 394.252 213.889 365.846 214.256 335.54C214.61 306.221 207.468 278.097 192.846 251.183C217.985 262.241 242.72 264.676 267.014 258.437L267.022 258.435C292.071 251.796 313.592 235.274 331.603 208.999C336.682 201.59 341.269 193.881 345.363 185.874L345.37 185.861L345.376 185.848C349.145 177.915 353.723 167.792 359.108 155.479L359.111 155.472C364.2 143.599 368.774 133.694 372.835 125.751L372.841 125.74L372.846 125.729C376.733 117.641 381.045 110.144 385.78 103.236C396.928 86.974 409.683 79.1666 424.039 79.4341L424.046 79.4342L424.053 79.4343C438.748 79.4982 454.072 84.9172 470.041 95.7991L470.464 96.0872L470.945 95.9129C472.919 95.198 474.7 94.1118 476.284 92.6624L476.326 92.6235L476.364 92.5799C477.722 91.0147 479.347 88.8482 481.234 86.0951C483.222 83.1946 484.148 80.1206 483.951 76.898L483.924 76.4676L483.593 76.1912C453.786 51.3157 424.656 41.1832 396.255 46.0768C367.695 50.8077 341.338 70.978 317.142 106.275C311.483 114.53 305.971 123.791 300.604 134.059C295.25 144.298 292.083 150.335 291.098 152.176L291.093 152.184L291.089 152.192C287.017 160.156 282.801 168.331 278.44 176.716C273.924 184.917 269.439 192.266 264.985 198.763C256.202 211.576 248.256 220.132 241.161 224.557C233.689 229.073 226.947 231.019 220.903 230.544C214.709 230.057 206.742 228.086 196.974 224.592C184.371 219.814 173.649 217.058 164.827 216.364Z" stroke="white" stroke-width="2"/>
<path d="M922.374 887.796L922.895 887.845L923.232 887.446C925.55 884.703 927.143 881.677 927.994 878.373C928.852 875.047 928.753 871.858 927.669 868.835L927.585 868.6L927.4 868.432C912.178 854.623 903.764 839.621 902.013 823.425C900.266 807.259 905.774 791.545 918.701 776.247C923.571 770.484 929.184 764.566 935.544 758.492C942.112 752.543 948.605 746.681 955.024 740.907C961.304 735.301 967.639 729.447 974.028 723.346C980.624 717.37 986.388 711.466 991.317 705.633C1014.62 678.06 1023.94 649.576 1019.09 620.23C1014.45 591.092 997.923 564.119 969.661 539.304L969.11 538.82L968.483 539.2C964.65 541.522 961.762 543.79 959.881 546.016C957.564 548.757 956.037 551.705 955.334 554.857L955.215 555.39L955.599 555.778C970.317 570.648 979.222 585.334 982.435 599.83L982.438 599.842C985.761 614.011 981.399 628.356 969.069 642.947C961.127 652.347 948.405 663.601 930.859 676.715L930.848 676.723L930.838 676.731C920.622 684.807 912.813 691.126 907.416 695.684C901.986 700.271 896.805 705.484 891.873 711.32C873.18 733.443 864.143 757.565 864.837 783.658C865.504 808.739 874.155 833.04 890.732 856.549C863.281 846.214 836.589 843.262 810.673 847.728L810.666 847.729C783.909 852.519 761.246 865.911 742.699 887.86C737.472 894.046 732.788 900.507 728.646 907.245L728.636 907.26L728.628 907.276C724.839 913.954 720.256 922.483 714.881 932.86L714.877 932.868C709.809 942.872 705.227 951.203 701.131 957.866L701.123 957.879L701.116 957.892C697.216 964.68 692.836 970.948 687.978 976.698C676.574 990.194 663.073 996.496 647.427 995.745L647.415 995.744C631.464 995.159 614.663 989.933 597.001 980.006L596.65 979.809L596.261 979.909C594.178 980.446 592.299 981.309 590.633 982.501L590.583 982.537L590.539 982.578C589.121 983.879 587.439 985.687 585.496 987.986C583.419 990.444 582.486 993.135 582.827 996.014L582.88 996.468L583.259 996.725C616.322 1019.13 648.063 1028.83 678.45 1025.66C709.047 1022.63 736.8 1006.29 761.71 976.813C767.532 969.923 773.16 962.161 778.595 953.532C784.01 944.934 787.213 939.868 788.21 938.324L788.217 938.315L788.222 938.305C792.334 931.618 796.593 924.754 801.001 917.715C805.579 910.845 810.154 904.707 814.725 899.298C823.737 888.632 831.999 881.583 839.503 878.039C847.413 874.43 854.67 872.98 861.297 873.613C868.043 874.257 876.75 876.243 887.437 879.597C901.208 884.146 912.859 886.887 922.374 887.796Z" stroke="white" stroke-width="2"/>
<path d="M475.294 544.159C475.363 545.13 475.449 546.094 475.529 547.04C476.357 557.812 477.432 568.573 477.9 579.37C478.146 584.886 478.229 590.408 478.041 595.93C477.865 601.212 477.428 603.825 476.948 611.746C476.801 614.145 482.6 616.822 484.337 615.517C500.806 603.161 518.549 593.021 537.763 585.849C540.304 584.906 542.853 583.973 545.431 583.139C557.505 579.082 569.801 575.781 582.211 573.006C589.677 571.336 597.345 569.744 604.953 568.5C609.515 567.753 614.278 567.171 618.932 566.643C621.702 566.328 626.95 565.659 625.673 561.511C624.511 557.741 617.879 557.931 614.851 557.78C596.248 556.858 577.88 558.192 559.593 561.851C537.819 566.211 516.559 572.482 495.829 580.12C495.216 580.345 494.611 580.572 493.999 580.797C495.596 580.22 490.088 558.472 489.495 556.169C488.951 554.081 483.924 536.614 481.975 535.968C479.203 535.045 477.542 535.934 476.24 536.87C474.436 538.175 475.088 541.325 475.294 544.159Z" fill="white"/>
</svg>
