<svg xmlns="http://www.w3.org/2000/svg" viewBox="230 300 625 400" fill="none">
<path d="M543.321 552.663L465.329 430.752L465.212 533.183L330.799 306.89H236.24V688.908H329.742L330.047 462.898L463.073 678.78L543.321 552.663V552.663Z" fill="#002F56"/>
<path d="M465.353 405.091H558.736L558.948 404.01V306.89H465.447L465.329 404.01L465.353 405.091V405.091Z" fill="#002F56"/>
<path d="M703.065 511C680.694 510.576 660.482 524.292 652.613 545.237C665.713 525.647 690.657 517.775 712.629 526.297C722.78 530.433 736.128 537.107 746.702 533.535C736.645 519.421 720.395 511.029 703.065 511V511Z" fill="#96D7E8"/>
<path d="M809.021 556.963C809.021 545.52 802.794 542.864 789.87 538.165C780.282 534.828 769.402 531.068 761.483 520.728C759.932 518.684 758.499 516.381 756.971 513.937C753.55 507.608 748.91 502.017 743.319 497.488C735.776 491.943 725.883 489.24 713.052 489.24C687.308 489.258 664.114 504.798 654.306 528.601C666.706 511.394 687.314 502.072 708.423 504.118C729.533 506.165 747.966 519.273 756.83 538.541C761.259 545.848 769.993 549.338 778.238 547.094C790.857 544.392 789.987 556.329 809.045 560.371L809.021 556.963Z" fill="#48C4E5"/>
<path d="M850.637 554.519V554.261C850.355 478.501 788.859 413.691 713.052 413.691C666.753 413.659 623.55 436.944 598.12 475.634L597.627 474.788L558.713 413.691H465.353L554.06 552.616L467.491 688.908H558.172L597.627 628.305L637.786 688.908H728.491L646.246 559.477C644.88 556.956 644.139 554.143 644.084 551.276C644.077 532.995 651.337 515.461 664.263 502.534C677.19 489.608 694.724 482.348 713.005 482.355C751.12 482.355 757.488 505.148 765.713 515.864C781.95 537.013 814.379 527.754 814.379 555.342V555.342C814.475 561.806 818.013 567.728 823.66 570.876C829.306 574.025 836.204 573.922 841.754 570.606C847.304 567.29 850.663 561.265 850.567 554.801V554.801V554.519H850.637Z" fill="#002F56"/>
<path d="M850.731 574.023C851.653 580.466 850.741 587.039 848.1 592.987C842.93 604.948 834.306 600.953 834.306 600.953C834.306 600.953 826.88 597.334 831.392 590.402C836.397 582.671 846.29 583.564 850.731 574.023Z" fill="#002F56"/>
</svg>