<svg width="32" height="24" viewBox="0 0 32 24" fill="none" xmlns="http://www.w3.org/2000/svg">
<path d="M28.7135 10.7522C29.5255 10.7522 30.1838 11.3177 30.1838 12.0153C30.1838 12.713 29.5255 13.2785 28.7135 13.2785H1.47027C0.658262 13.2785 0 12.713 0 12.0153C0 11.3177 0.658262 10.7522 1.47027 10.7522H28.7135Z" fill="white"/>
<path d="M28.4946 11.9687L17.5493 2.13621C16.9881 1.63204 17.0089 0.83245 17.5957 0.350278C18.1825 -0.131893 19.1132 -0.11406 19.6745 0.39011L31.5923 11.0963C32.1362 11.5849 32.1359 12.3548 31.5915 12.8431L19.5872 23.6106C19.0255 24.1144 18.0948 24.1316 17.5084 23.6491C16.922 23.1665 16.9019 22.3669 17.4636 21.8631L28.4946 11.9687Z" fill="white"/>
</svg>
