<svg xmlns="http://www.w3.org/2000/svg" xmlns:xlink="http://www.w3.org/1999/xlink" xmlns:a="http://ns.adobe.com/AdobeSVGViewerExtensions/3.0/" version="1.1" x="0px" y="0px" width="222px" height="222px" viewBox="-4.092 0 222 222" enable-background="new -4.092 0 222 222" xml:space="preserve">
<defs>
</defs>
<path fill="#F0776F" d="M195.333,129.506c-0.446,0-0.893,0-1.488-0.148c-6.399-0.744-11.013-6.548-10.269-12.947l6.994-57.891  c0.447-3.721-1.785-7.293-5.208-8.483l-47.176-16.816c-6.103-2.232-9.228-8.78-7.144-14.882c2.232-6.102,8.78-9.227,14.882-7.144  l47.176,16.816c13.989,4.911,22.472,18.603,20.687,33.336l-6.995,57.891C206.197,125.042,201.137,129.506,195.333,129.506z"/>
<path fill="#F0776F" d="M104.851,222.222c-5.209,0-10.417-1.34-15.329-4.019l-61.016-33.931  c-8.781-4.911-14.733-13.691-15.924-23.663L0.23,60.007c-1.786-14.733,6.995-28.723,20.983-33.634L96.665,0.627  c6.102-2.083,12.799,1.19,14.882,7.292c2.084,6.103-1.19,12.799-7.292,14.883L28.803,48.547c-3.572,1.191-5.804,4.763-5.357,8.632  l12.352,100.603c0.298,2.53,1.786,4.762,4.018,6.102l61.016,33.931c2.381,1.34,5.358,1.34,7.739,0l66.076-36.163  c2.232-1.19,3.87-3.571,4.167-6.102c0.744-6.399,6.549-11.013,12.948-10.269c6.398,0.744,11.012,6.548,10.269,12.947  c-1.191,9.971-7.293,18.9-16.073,23.812l-66.076,36.163C115.268,220.882,110.059,222.222,104.851,222.222z"/>
<path fill="#F0776F" d="M157.086,131.441l-37.8-68.309l-0.149-0.149c-2.679-4.613-7.738-7.59-13.096-7.59s-10.417,2.977-13.096,7.59  l-37.8,68.458c-2.828,5.208-1.042,11.607,4.167,14.436c5.208,2.827,11.608,1.041,14.436-4.167l7.292-13.245h50.004l7.292,13.245  c1.935,3.571,5.506,5.506,9.376,5.506c1.785,0,3.571-0.446,5.06-1.339C157.979,143.049,159.914,136.501,157.086,131.441z   M92.796,107.183l13.245-23.96l13.245,23.96H92.796z"/>
</svg>