<svg xmlns="http://www.w3.org/2000/svg" viewBox="0 0 299.74353 116.57373"><defs><style>.a{fill:#555;}.b{fill:#c95228;}</style></defs><title>rushstack</title><rect class="a" x="169.56009" y="382.98379" width="30.44891" height="103.06908" rx="3.94362" ry="3.94362" transform="translate(486.05287 -83.72862) rotate(90)"/><rect class="a" x="184.81009" y="362.71185" width="30.44891" height="72.56908" rx="3.94362" ry="3.94362" transform="translate(465.78093 -134.50055) rotate(90)"/><rect class="a" x="199.60176" y="341.98158" width="30.44891" height="42.98575" rx="3.94362" ry="3.94362" transform="translate(445.05066 -184.81416) rotate(90)"/><path class="b" d="M283.76416,348.8418a1.6413,1.6413,0,0,0-1.13623-.76416,30.63966,30.63966,0,0,0-4.52-.49366,18.03994,18.03994,0,0,0-10.76172,3.37745l.14942-.73536a1.64086,1.64086,0,0,0-1.60791-1.96777h-7.41846a1.64141,1.64141,0,0,0-1.60791,1.3125L249.48242,385.667a1.64115,1.64115,0,0,0,1.60791,1.96973h7.418a1.64131,1.64131,0,0,0,1.60742-1.31055l4.25586-20.69531a11.7235,11.7235,0,0,1,3.96436-6.62842,9.65409,9.65409,0,0,1,6.45361-2.74365,7.71161,7.71161,0,0,1,4.53369,1.32715,1.64154,1.64154,0,0,0,2.49414-.84717l2.1084-6.53809A1.642,1.642,0,0,0,283.76416,348.8418Z" transform="translate(-133.25001 -333.4624)"/><path class="b" d="M295.0918,388.31055c5.146,0,9.32763-.96631,12.498-2.87989l-.04687.22022a1.64144,1.64144,0,0,0,1.60449,1.98584h7.80859a1.64134,1.64134,0,0,0,1.60547-1.30078l7.65235-36.09619a1.64071,1.64071,0,0,0-1.60547-1.98145h-7.8086a1.64115,1.64115,0,0,0-1.60449,1.29736l-4.76562,22.25245a8.84945,8.84945,0,0,1-3.96289,5.42919,12.06674,12.06674,0,0,1-7.08057,2.39893c-4.54,0-5.15234-2.01562-5.15234-3.9873a11.73,11.73,0,0,1,.27685-2.38965l4.88037-23.01953a1.64134,1.64134,0,0,0-1.60547-1.98145h-7.80859a1.64142,1.64142,0,0,0-1.60791,1.3125l-4.84033,23.689a19.08016,19.08016,0,0,0-.42481,3.83837,10.70309,10.70309,0,0,0,3.26758,8.28956C288.49609,387.32715,291.43018,388.31055,295.0918,388.31055Z" transform="translate(-133.25001 -333.4624)"/><path class="b" d="M350.52637,365.56836l-5.46973-2.56348a15.352,15.352,0,0,1-3.75976-2.21386,1.85914,1.85914,0,0,1-.67969-1.45459,2.23836,2.23836,0,0,1,1.34179-2.02,7.96035,7.96035,0,0,1,4.20118-1.05762,11.31834,11.31834,0,0,1,7.21875,2.67822,1.64069,1.64069,0,0,0,2.45117-.48486l3.31933-5.93164a1.64044,1.64044,0,0,0-.83886-2.33155,33.2102,33.2102,0,0,0-11.60352-2.605,21.15807,21.15807,0,0,0-12.04394,3.33008,10.91785,10.91785,0,0,0-5.25293,9.43311,8.84475,8.84475,0,0,0,1.543,4.97119A11.08911,11.08911,0,0,0,335.419,369.041l5.48535,2.61865a16.28642,16.28642,0,0,1,3.72558,2.28857,1.74155,1.74155,0,0,1,.6709,1.32959,3.48268,3.48268,0,0,1-1.57812,3.0459,8.08284,8.08284,0,0,1-4.78517,1.3125,12.53159,12.53159,0,0,1-4.292-.98633,13.40563,13.40563,0,0,1-3.88867-2.11963,1.64041,1.64041,0,0,0-2.45606.35987l-3.86523,6.0664a1.6405,1.6405,0,0,0,.60254,2.3252,26.18044,26.18044,0,0,0,12.61132,3.02881c5.31543,0,9.78711-1.23242,13.291-3.6626a12.19146,12.19146,0,0,0,5.56738-10.51611,8.74223,8.74223,0,0,0-1.52929-4.96241A10.63644,10.63644,0,0,0,350.52637,365.56836Z" transform="translate(-133.25001 -333.4624)"/><path class="b" d="M395.83008,386.32471l4.64746-22.69043a20.56738,20.56738,0,0,0,.42187-3.99463,11.36656,11.36656,0,0,0-3.61425-8.91016c-2.34375-2.08691-5.60743-3.14551-9.7002-3.14551a21.91548,21.91548,0,0,0-7.65918,1.43506,21.57577,21.57577,0,0,0-2.56445,1.13965l2.70215-14.75976a1.64086,1.64086,0,0,0-1.61426-1.93653h-7.37988a1.64215,1.64215,0,0,0-1.60938,1.31885l-10.19043,50.89209a1.64134,1.64134,0,0,0,1.60938,1.96338h7.57519a1.64046,1.64046,0,0,0,1.60742-1.311l5.40137-26.32226a15.5926,15.5926,0,0,1,4-2.52783,12.12066,12.12066,0,0,1,4.999-1.2168c4.7461,0,5.38672,2.32226,5.38672,4.59424a10.91921,10.91921,0,0,1-.24023,2.13135l-4.64551,22.68212a1.64064,1.64064,0,0,0,1.60742,1.97022h7.65235A1.64085,1.64085,0,0,0,395.83008,386.32471Z" transform="translate(-133.25001 -333.4624)"/><path class="b" d="M280.49658,411.915a33.19189,33.19189,0,0,0-11.60254-2.60449,21.163,21.163,0,0,0-12.04443,3.3291,10.921,10.921,0,0,0-5.25342,9.43359,8.83885,8.83885,0,0,0,1.54444,4.97168,11.08626,11.08626,0,0,0,4.46533,3.72168l5.48486,2.61914a16.26763,16.26763,0,0,1,3.72559,2.28809,1.739,1.739,0,0,1,.67041,1.33008,3.48181,3.48181,0,0,1-1.57715,3.04589,8.08926,8.08926,0,0,1-4.78565,1.3125,12.516,12.516,0,0,1-4.292-.9873,13.38986,13.38986,0,0,1-3.88867-2.11914,1.64,1.64,0,0,0-2.45606.36035l-3.86523,6.06641a1.64124,1.64124,0,0,0,.60254,2.32519,26.18,26.18,0,0,0,12.61133,3.02832c5.31543,0,9.7876-1.23144,13.292-3.66211a12.19471,12.19471,0,0,0,5.56689-10.5166,8.74141,8.74141,0,0,0-1.52978-4.96191,10.63522,10.63522,0,0,0-4.45166-3.60156l-5.46973-2.5625a15.32665,15.32665,0,0,1-3.76025-2.21582,1.85581,1.85581,0,0,1-.6792-1.45313,2.23571,2.23571,0,0,1,1.34131-2.01953,7.95541,7.95541,0,0,1,4.20166-1.05859,11.31517,11.31517,0,0,1,7.21875,2.67871,1.64184,1.64184,0,0,0,2.45166-.48536l3.31836-5.93164a1.641,1.641,0,0,0-.83936-2.33105Z" transform="translate(-133.25001 -333.4624)"/><path class="b" d="M312.7002,409.98438h-9.33838l2.21679-8.24708a1.64158,1.64158,0,0,0-2.09375-1.98632l-8.47265,2.76367a1.64289,1.64289,0,0,0-1.09131,1.19629l-1.42725,6.27344h-3.53174a1.6411,1.6411,0,0,0-1.59326,1.24707l-1.24951,5.05566a1.64074,1.64074,0,0,0,1.59326,2.03418h2.752l-4.499,18.44726a11.24565,11.24565,0,0,0-.40137,2.7295,10.21574,10.21574,0,0,0,2.98487,7.70605,11.218,11.218,0,0,0,8.06543,2.832c4.97754,0,8.52344-.35547,10.84082-1.08691a1.63965,1.63965,0,0,0,1.14453-1.48438l.27344-5.6289a1.64055,1.64055,0,0,0-2.21631-1.61621,16.16072,16.16072,0,0,1-5.63037,1.14257c-3.77344,0-4.29346-1.68945-4.29346-3.51562A12.94811,12.94811,0,0,1,297.19336,435l4.06787-16.67871h10.189a1.64014,1.64014,0,0,0,1.59277-1.24707l1.25-5.05567a1.64011,1.64011,0,0,0-1.59277-2.03417Z" transform="translate(-133.25001 -333.4624)"/><path class="b" d="M355.585,412.51953c-3.22266-2.15918-8.24609-3.209-15.35937-3.209a23.87089,23.87089,0,0,0-18.66211,8.2207,27.49153,27.49153,0,0,0-7.18555,18.66406c0,4.39453,1.3418,7.84668,3.98926,10.26074,2.60449,2.376,6.21484,3.58008,10.73047,3.58008a26.19747,26.19747,0,0,0,8.20605-1.27832,18.07488,18.07488,0,0,0,4.10547-1.8916,10.83235,10.83235,0,0,0,.75391,1.67871,1.6426,1.6426,0,0,0,1.41992.81738h7.57422a1.64144,1.64144,0,0,0,1.50976-2.28515,23.0228,23.0228,0,0,1-1.78222-9.0957,11.66994,11.66994,0,0,1,.2666-2.71192l5.11523-20.998A1.64144,1.64144,0,0,0,355.585,412.51953Zm-25.80762,10.36328c2.82129-3.40918,5.958-5.06738,9.58887-5.06738a17.64578,17.64578,0,0,1,5.24121.52734l-2.96972,12.13477a17.15741,17.15741,0,0,1-4.29981,8.08887c-1.96094,1.99511-3.9541,2.96484-6.09277,2.96484-4.04883,0-5.77735-1.65625-5.77735-5.53809A19.96337,19.96337,0,0,1,329.77734,422.88281Z" transform="translate(-133.25001 -333.4624)"/><path class="b" d="M392.61035,411.32129c-2.51953-1.334-5.957-2.01074-10.21777-2.01074-7.1875,0-13.20117,2.373-17.87207,7.05371-4.6709,4.67871-7.03809,10.749-7.03809,18.04394a14.80735,14.80735,0,0,0,4.665,11.36719c3.05859,2.82715,7.42676,4.26074,12.9834,4.26074a32.92676,32.92676,0,0,0,11.791-2.0625,1.64073,1.64073,0,0,0,1.042-1.3291l.82031-6.53808a1.64058,1.64058,0,0,0-2.44824-1.625,19.87795,19.87795,0,0,1-10.03321,2.78027,7.79852,7.79852,0,0,1-5.43652-2.18457,7.36817,7.36817,0,0,1-2.333-5.78027,15.591,15.591,0,0,1,4.00879-10.94922,13.22834,13.22834,0,0,1,10.39746-4.36328,11.64389,11.64389,0,0,1,6.60938,1.63574,1.64243,1.64243,0,0,0,2.51855-.959l1.36719-5.49316A1.64282,1.64282,0,0,0,392.61035,411.32129Z" transform="translate(-133.25001 -333.4624)"/><path class="b" d="M417.68555,428.50781c5.90234-4.86426,10.87793-9.23437,14.80371-13.00293a1.64155,1.64155,0,0,0-.13086-2.48047l-4.99707-3.876a1.6412,1.6412,0,0,0-2.27149.252c-1.91113,2.31445-6.751,6.66309-14.40722,12.94727l4.55957-25.22657a1.641,1.641,0,0,0-1.61524-1.9331H406.4043a1.64177,1.64177,0,0,0-1.61133,1.32861L394.915,447.40918a1.64162,1.64162,0,0,0,1.61133,1.95312h7.418a1.64008,1.64008,0,0,0,1.60937-1.32031l2.61133-13.13476,1.1543-.86426,11.81347,14.706a1.64153,1.64153,0,0,0,1.2793.61328h8.74512a1.64081,1.64081,0,0,0,1.27441-2.6748Z" transform="translate(-133.25001 -333.4624)"/></svg>