<?xml version="1.0" encoding="UTF-8"?>
<!-- Copyright (c) Microsoft Corporation. All rights reserved. Licensed under the MIT license. -->
<svg version="1.1" viewBox="0 0 604.52722 144" xmlns="http://www.w3.org/2000/svg" xmlns:cc="http://creativecommons.org/ns#" xmlns:dc="http://purl.org/dc/elements/1.1/" xmlns:rdf="http://www.w3.org/1999/02/22-rdf-syntax-ns#" ><title>TSDoc</title><metadata><rdf:RDF><cc:Work rdf:about="" ><dc:format>image/svg+xml</dc:format><dc:type rdf:resource="http://purl.org/dc/dcmitype/StillImage" /><dc:title>TSDoc</dc:title><cc:license rdf:resource="https://opensource.org/licenses/MIT" /><dc:creator><cc:Agent><dc:title>https://github.com/octogonz</dc:title></cc:Agent></dc:creator><dc:rights><cc:Agent><dc:title/></cc:Agent></dc:rights><dc:description>Copyright (c) Microsoft Corporation. All rights reserved. Licensed under the MIT license.</dc:description></cc:Work></rdf:RDF></metadata><defs><style>.a{fill:#1e9348;}</style></defs><g fill="#1e9348" ><polygon class="a" points="207 21.986 207 22.986 207 36.795 207 37.795 208 37.795 235.096 37.795 235.096 121.014 235.096 122.014 236.096 122.014 252.365 122.014 253.365 122.014 253.365 121.014 253.365 37.795 280.529 37.795 281.529 37.795 281.529 36.795 281.529 22.986 281.529 21.986 280.529 21.986 208 21.986" /><path class="a" d="m352.01642 85.35309a29.673 29.673 0 0 0-5.65827-8.171 46.80568 46.80568 0 0 0-8.1726-6.63739c-3.054-1.97363-6.33545-3.87555-9.75348-5.65289l-0.0295-0.0154-0.0306-0.0134c-3.29785-1.44477-6.2392-2.80652-8.74225-4.04737a39.9631 39.9631 0 0 1-6.26794-3.76489 13.69162 13.69162 0 0 1-3.73139-4.072 10.3099 10.3099 0 0 1-1.23584-5.17834 8.94919 8.94919 0 0 1 1.58789-5.36158 12.97885 12.97885 0 0 1 4.28784-3.74444 20.5518 20.5518 0 0 1 6.12793-2.148 37.69706 37.69706 0 0 1 7.02564-0.66589c8.49328 0 15.51831 1.96038 20.87994 5.82672l1.5849 1.14288v-18.6391l-0.55633-0.27545c-4.8125-2.38221-12.50562-3.59009-22.86554-3.59009a56.29356 56.29356 0 0 0-13.50177 1.63568 38.78182 38.78182 0 0 0-11.89344 5.05457 27.40724 27.40724 0 0 0-8.5108 8.72485 23.64319 23.64319 0 0 0-3.2561 12.51849 25.48371 25.48371 0 0 0 1.89331 10.17371 26.40356 26.40356 0 0 0 5.18567 7.77917 41.15355 41.15355 0 0 0 7.67224 6.202c2.88226 1.83032 6.032 3.66 9.36169 5.43817l0.0276 0.0147 0.0284 0.013c3.119 1.42279 6.04535 2.78857 8.69782 4.05939a48.57536 48.57536 0 0 1 6.93261 3.98327 16.68723 16.68723 0 0 1 4.42029 4.41211 9.87472 9.87472 0 0 1 1.51276 5.50263 10.21812 10.21812 0 0 1-4.58789 9.08575c-3.16412 2.15314-8.11487 3.24481-14.71484 3.24481a36.35358 36.35358 0 0 1-6.252-0.6 51.228 51.228 0 0 1-6.83856-1.70984 40.69253 40.69253 0 0 1-6.43909-2.70166 24.99468 24.99468 0 0 1-5.159-3.54724l-1.67267-1.52063v19.55932l0.46484 0.2945a23.55938 23.55938 0 0 0 5.643 2.43573 68.80789 68.80789 0 0 0 7.21447 1.76916c2.5177 0.48078 5.01783 0.85291 7.43079 1.106a61.15289 61.15289 0 0 0 6.15509 0.38147 67.42521 67.42521 0 0 0 14.22522-1.45819 37.21927 37.21927 0 0 0 12.04486-4.78015 24.17778 24.17778 0 0 0 11.57567-21.76414 24.29459 24.29459 0 0 0-2.11058-10.29901z" /><path class="a" d="m399.40625 21.98608h-29.30078v100.02784h28.13867c17.04254 0 30.83948-4.72278 41.00751-14.037 10.19452-9.338 15.36358-21.85645 15.36358-37.20758 0-32.37023-18.57495-48.78326-55.20898-48.78326zm26.88075 75.14258c-6.13367 6.06818-14.87866 9.145-25.99207 9.145h-11.98829v-68.479h12.60352c11.54846 0 20.30188 2.79779 26.01709 8.31573 5.70532 5.5083 8.59814 13.94275 8.59814 25.069 0 11.15441-3.10821 19.885-9.23839 25.94927z" /><path class="a" d="m528.78345 58.32251c-6.27509-6.60217-15.12073-9.94971-26.29126-9.94971-11.61151 0-20.98932 3.43146-27.87293 10.199-6.88958 6.77252-10.38293 16.28119-10.38293 28.262 0 11.02344 3.35162 20.01111 9.96185 26.71344 6.61157 6.70667 15.55609 10.10736 26.585 10.10736 11.34729 0 20.52326-3.49341 27.273-10.38324 6.74341-6.88446 10.1626-16.14734 10.1626-27.53131-3e-5 -11.60577-3.17453-20.83032-9.43533-27.41754zm-13.63556 44.9043c-3.17865 3.93621-7.63135 5.84961-13.61273 5.84961-5.8559 0-10.39368-1.95539-13.87256-5.97791-3.46717-4.00757-5.2251-9.6178-5.2251-16.67493 0-7.33392 1.73926-13.14465 5.16937-17.27093 3.4317-4.12708 7.98767-6.13336 13.92829-6.13336 5.97857 0 10.43023 1.9342 13.60937 5.91327 3.18811 3.99121 4.80469 9.784 4.80469 17.21759 0 7.38739-1.61542 13.13285-4.80133 17.07666z" /><path class="a" d="m603.94354 51.81311a41.35 41.35 0 0 0-17.301-3.44031c-11.70978 0-21.207 3.63129-28.22779 10.79309-7.017 7.15692-10.575 16.7417-10.575 28.48816 0 10.56909 3.31635 19.30335 9.857 25.96015 6.54608 6.66229 15.24988 10.04034 25.86957 10.04034 7.79766 0 14.65869-1.678 20.39245-4.98743l0.50012-0.28869v-16.47042l-1.62567 1.30383a24.50588 24.50588 0 0 1-15.50714 5.86457c-6.47626 0-11.6958-2.01288-15.51361-5.98273-3.82977-3.9809-5.77154-9.52051-5.77154-16.465 0-7.03784 2.07006-12.79815 6.15277-17.121a20.7883 20.7883 0 0 1 15.74762-6.48834 24.71371 24.71371 0 0 1 14.98724 5.26971l1.59869 1.195v-17.40366z" /><path class="a" d="m139 0h-134a5 5 0 0 0-5 5v134a5 5 0 0 0 5 5h134a5 5 0 0 0 5-5v-134a5 5 0 0 0-5-5zm-13 103.90625-7.3598 12.6875-18.54676-13.125 2.13434 22.53125h-15.382l2.0608-22.53125-18.47315 13.125-7.43343-12.6875 20.68109-9.40625-20.68109-9.40625 7.43341-12.6875 18.47315 13.125-2.0608-22.53125h15.382l-2.13434 22.53125 18.54676-13.125 7.35982 12.6875-20.60748 9.40625z" /></g></svg>