<?xml version="1.0" encoding="UTF-8" standalone="no"?>
<!DOCTYPE svg PUBLIC "-//W3C//DTD SVG 1.1//EN" "http://www.w3.org/Graphics/SVG/1.1/DTD/svg11.dtd">
<svg version="1.1" xmlns="http://www.w3.org/2000/svg" xmlns:xlink="http://www.w3.org/1999/xlink" preserveAspectRatio="xMidYMid meet" viewBox="0 0 1200 630" width="1200" height="630"><defs><path d="M649.6 0L748.35 0L892.08 345.55L1036.93 0L1131.97 0L942.06 463.38L841.93 463.38L649.6 0Z" id="b1Ta6zSYhn"></path><path d="M458.59 0L557.34 0C655.7 239.91 717.17 389.85 741.76 449.82C776.99 535.77 713.78 630 620.89 630C602.97 630 593.09 630 537.45 630C533.71 630 530.34 627.75 528.9 624.29C524.4 613.47 513.15 586.42 495.15 543.14C546.37 543.14 578.39 543.14 591.2 543.14C634.79 543.14 664.42 498.87 647.79 458.57C622.57 397.43 559.5 244.57 458.59 0Z" id="c1hXnklTNL"></path><path d="M414.33 351.88L217.2 351.88L170.18 463.38L71.43 463.38L268.94 0L363.89 0L553.8 463.38L462.65 463.38L462.65 463.38L414.33 351.88ZM316.5 112.17L253.66 262.43L379.25 262.43L379.25 262.43L316.5 112.17Z" id="df8TXsEtW"></path></defs><g><g><g><use xlink:href="#b1Ta6zSYhn" opacity="1" fill="#e34234" fill-opacity="1"></use><g><use xlink:href="#b1Ta6zSYhn" opacity="1" fill-opacity="0" stroke="#000000" stroke-width="0" stroke-opacity="1"></use></g></g><g><use xlink:href="#c1hXnklTNL" opacity="1" fill="#00a86b" fill-opacity="1"></use><g><use xlink:href="#c1hXnklTNL" opacity="1" fill-opacity="0" stroke="#000000" stroke-width="0" stroke-opacity="1"></use></g></g><g><use xlink:href="#df8TXsEtW" opacity="1" fill="#007fff" fill-opacity="1"></use><g><use xlink:href="#df8TXsEtW" opacity="1" fill-opacity="0" stroke="#000000" stroke-width="0" stroke-opacity="1"></use></g></g></g></g></svg>