<?xml version="1.0" encoding="UTF-8"?>
<svg width="161px" height="46px" viewBox="0 0 161 46" version="1.1" xmlns="http://www.w3.org/2000/svg" xmlns:xlink="http://www.w3.org/1999/xlink">
    <!-- Generator: sketchtool 63.1 (101010) - https://sketch.com -->
    <title>19FEDE76-3BC6-47AE-A25D-6847121EA783</title>
    <desc>Created with sketchtool.</desc>
    <g id="Page-1" stroke="none" stroke-width="1" fill="none" fill-rule="evenodd">
        <g id="web_05_01" transform="translate(-38.000000, -22.000000)">
            <g id="top-bar">
                <g id="logo-light-2-copy-3" transform="translate(38.000000, 15.000000)">
                    <g id="logo-light-2">
                        <g id="Group-3" transform="translate(0.000000, 20.210526)" fill="#062D56">
                            <path d="M8.01411525,2.0352042e-14 C8.69110672,2.0352042e-14 9.35894965,0.0628231583 10.0176441,0.188469475 C10.6763385,0.314115791 11.3075873,0.475661055 11.9113905,0.673105267 C12.5151937,0.870549479 13.0778285,1.0949179 13.5992949,1.34621053 C14.1207613,1.59750317 14.6010593,1.8487958 15.0401889,2.10008843 L15.0401889,2.10008843 L13.0641057,5.76178109 L13.0370889,5.73191204 C12.9590405,5.65534631 12.7759269,5.53068161 12.4877481,5.35791793 C12.1584009,5.16047371 11.7467169,4.95405476 11.2526961,4.73866108 C10.7586753,4.52326739 10.2189118,4.33479792 9.63340565,4.17325266 C9.04789952,4.01170739 8.46239338,3.93093476 7.87688724,3.93093476 C6.26674537,3.93093476 5.46167443,4.46044424 5.46167443,5.51946319 C5.46167443,5.84255372 5.5485855,6.11179582 5.72240763,6.32718951 C5.89622977,6.5425832 6.1523887,6.73554004 6.49088444,6.90606004 C6.82938017,7.07658004 7.25478697,7.23363794 7.76710484,7.37723373 C8.27942271,7.52082952 8.87407738,7.68237478 9.55106885,7.86186952 C10.4842193,8.11316215 11.3258843,8.38689163 12.0760641,8.68305794 C12.8262438,8.97922426 13.4620669,9.34718847 13.9835333,9.78695058 C14.5049997,10.2267127 14.9075352,10.7607095 15.1911397,11.3889411 C15.4747442,12.0171727 15.6165465,12.7710506 15.6165465,13.6505748 C15.6165465,14.7275432 15.4107045,15.638479 14.9990205,16.3833822 C14.5873365,17.1282854 14.0429987,17.7295927 13.3660073,18.1873043 C12.6890158,18.6450159 11.9113905,18.9770812 11.0331313,19.1835001 C10.1548721,19.3899191 9.24916725,19.4931285 8.31601685,19.4931285 C7.60243124,19.4931285 6.87054857,19.4392801 6.12036883,19.3315833 C5.3701891,19.2238864 4.63830643,19.0668285 3.92472082,18.8604096 C3.21113522,18.6539906 2.52042095,18.4071854 1.85257801,18.1199938 C1.18473507,17.8328022 0.56720907,17.5007369 2.08896231e-13,17.123798 L2.08896231e-13,17.123798 L1.97608321,13.2736359 L2.01124789,13.3110773 C2.11130997,13.4072753 2.33745028,13.5653148 2.68966882,13.7851959 C3.09220428,14.0364885 3.59079935,14.2877811 4.18545402,14.5390738 C4.78010869,14.7903664 5.44337736,15.0147348 6.17526004,15.212179 C6.90714271,15.4096232 7.64817391,15.5083454 8.39835365,15.5083454 C9.99019846,15.5083454 10.7861209,15.0326843 10.7861209,14.0813622 C10.7861209,13.7223727 10.6671899,13.4262064 10.4293281,13.1928632 C10.1914662,12.9595201 9.86211899,12.7486138 9.44128645,12.5601443 C9.02045392,12.3716748 8.52185885,12.1966674 7.94550125,12.0351222 C7.36914364,11.8735769 6.7424691,11.6940822 6.06547763,11.496638 C5.16892136,11.2273959 4.39129602,10.9357169 3.73260162,10.6216011 C3.07390722,10.3074853 2.52956948,9.94400848 2.09958841,9.53117058 C1.66960734,9.11833268 1.34940867,8.64267163 1.13899241,8.10418741 C0.928576139,7.5657032 0.823368005,6.93747162 0.823368005,6.21949267 C0.823368005,5.21432213 1.01548721,4.32582318 1.39972561,3.55399581 C1.78396401,2.78216844 2.30543041,2.13150001 2.96412482,1.60199054 C3.62281922,1.07248106 4.38672176,0.673105267 5.25583243,0.40386316 C6.1249431,0.134621053 7.04437071,2.0352042e-14 8.01411525,2.0352042e-14 Z M25.9714501,0.161545264 L25.9714501,19.2777348 L21.4703717,19.2777348 L21.4703717,0.161545264 L25.9714501,0.161545264 Z M37.8084162,0.161545264 L42.8584066,10.1504274 L47.9358427,0.161545264 L52.7937139,0.161545264 L52.7937139,19.2777348 L48.2926355,19.2777348 L48.2926355,7.83494531 L44.0660131,16.1545264 L41.6508002,16.1545264 L37.4241778,7.83494531 L37.4241778,19.2777348 L32.9230994,19.2777348 L32.9230994,0.161545264 L37.8084162,0.161545264 Z M82.9545743,0.161545264 L82.9545743,15.4006485 L92.3958607,15.4006485 L92.3958607,19.2777348 L78.4534958,19.2777348 L78.4534958,0.161545264 L82.9545743,0.161545264 Z M110.640056,0.161545264 L110.640056,4.0386316 L101.69279,4.0386316 L101.69279,7.75417268 L109.377558,7.75417268 L109.377558,11.3350927 L101.69279,11.3350927 L101.69279,15.4006485 L110.887066,15.4006485 L110.887066,19.2777348 L97.1917116,19.2777348 L97.1917116,0.161545264 L110.640056,0.161545264 Z M67.5248721,0.161545264 L67.8330421,0.168525615 C68.6471486,0.205754153 69.3998131,0.391896844 70.0910357,0.726953688 C70.868661,1.10389264 71.5365039,1.59750317 72.0945645,2.20778528 C72.652625,2.81806738 73.0917546,3.50912213 73.4119533,4.2809495 C73.732152,5.05277687 73.8922513,5.83357898 73.8922513,6.62335583 C73.8922513,7.4669811 73.7413005,8.27470742 73.4393989,9.04653479 C73.1374973,9.81836216 72.7166647,10.5094169 72.1769013,11.119699 C71.6371378,11.7299811 70.9830177,12.2146169 70.2145409,12.5736064 C69.5314504,12.8927081 68.7833036,13.0699869 67.9701007,13.1054426 L67.6621001,13.1120906 L63.7099336,13.1120906 L63.7099336,19.2777348 L59.2088552,19.2777348 L59.2088552,0.161545264 L67.5248721,0.161545264 Z M67.2229705,4.0386316 L63.7099336,4.0386316 L63.7099336,9.26192847 L67.3876441,9.26192847 C67.918259,9.26192847 68.3756857,9.03756005 68.7599241,8.58882321 C69.1441625,8.14008636 69.3362817,7.48493057 69.3362817,6.62335583 C69.3362817,6.17461898 69.2768162,5.7887053 69.1578853,5.46561477 C69.0389543,5.14252424 68.878855,4.87328213 68.6775873,4.65788845 C68.4763195,4.44249476 68.2476062,4.28543687 67.9914473,4.18671476 C67.7352883,4.08799265 67.4791294,4.0386316 67.2229705,4.0386316 Z" id="Combined-Shape"></path>
                        </g>
                        <g id="logo_shape_dark-copy-2" transform="translate(107.562758, 0.000000)">
                            <g id="logo_shape_dark" transform="translate(-0.000000, 0.000000)">
                                <path d="M19.9650203,24.7363684 L19.965179,35.2631579 L25.3302584,35.2631579 L25.3300203,35.2613684 L36.0600203,35.2623684 L36.0590203,24.7363684 L36.0604171,24.7368421 L36.0604171,19.4736842 L25.3300203,19.4733684 L25.3300203,19.4723684 L36.0600203,19.4733684 L36.0604171,8.94736842 L41.4254964,8.94736842 L41.4250203,19.4733684 L52.1556552,19.4736842 L52.1556552,24.7368421 L41.4250203,24.7363684 L41.4250203,35.2623684 L52.1556552,35.2631579 L52.1556552,40.5263158 L41.4250203,40.5253684 L41.4254964,51.0526316 L36.0604171,51.0526316 L36.0600203,40.5253684 L25.3300203,40.5253684 L25.3302584,51.0526316 L19.965179,51.0526316 L19.9650203,40.5253684 L9.23502026,40.5263158 L9.23502026,35.2631579 L19.9650203,35.2623684 L19.9640203,24.7363684 L19.9650203,24.7363684 Z" id="Combined-Shape" fill="#07B4B9" transform="translate(30.695338, 30.000000) rotate(-45.000000) translate(-30.695338, -30.000000) "></path>
                                <path d="M21.9968254,16.8421053 L21.9965873,27.3681053 L32.7269841,27.3684211 L32.7269841,32.6315789 L21.9965873,32.6311053 L21.9968254,43.1578947 L16.631746,43.1578947 L16.6315873,32.6311053 L5.9015873,32.6315789 L5.9015873,27.3684211 L16.6315873,27.3681053 L16.631746,16.8421053 L21.9968254,16.8421053 Z" id="Combined-Shape" fill="#062D56" transform="translate(19.314286, 30.000000) rotate(-45.000000) translate(-19.314286, -30.000000) "></path>
                            </g>
                        </g>
                    </g>
                </g>
            </g>
        </g>
    </g>
</svg>